<?xml version="1.0" encoding="UTF-8"?>
<svg version="1.1" xmlns="http://www.w3.org/2000/svg" width="74" height="49">
<path d="M0 0 C0.48082031 0.50273437 0.96164063 1.00546875 1.45703125 1.5234375 C3.35567238 3.34036496 4.84352813 3.67747207 7.375 4.3125 C12.27268713 5.81211756 14.14333835 7.80427821 17 12 C18.75182195 15.5036439 17.82066933 19.27144722 17 23 C14.8207718 26.85555759 12.29260184 28.89804614 8.13671875 30.51171875 C4.58278062 31.32386183 1.07812517 31.15969798 -2.546875 31.0078125 C-5.13916852 30.86902982 -5.13916852 30.86902982 -8 32 C-11.7264284 32.12217798 -15.08601738 32.16617866 -18.75 31.5 C-21.92300067 31.01184605 -24.67521443 31.07121707 -27.875 31.1875 C-34.97463959 31.24035092 -39.21692209 29.43519317 -44.5 24.8125 C-46.6379002 20.80393712 -46.88561824 17.44376585 -46 13 C-43.1622646 8.21132151 -40.17271982 6.19003942 -35.046875 4.50390625 C-33 4 -33 4 -29.375 3.625 C-24.91851854 2.79972565 -23.35907702 0.98584624 -20 -2 C-13.65707842 -4.74859935 -5.88916756 -3.17309915 0 0 Z " fill="#113475" transform="translate(53,9)"/>
<path d="M0 0 C0.48082031 0.50273437 0.96164063 1.00546875 1.45703125 1.5234375 C3.35567238 3.34036496 4.84352813 3.67747207 7.375 4.3125 C12.27268713 5.81211756 14.14333835 7.80427821 17 12 C18.75182195 15.5036439 17.82066933 19.27144722 17 23 C14.8207718 26.85555759 12.29260184 28.89804614 8.13671875 30.51171875 C4.58278062 31.32386183 1.07812517 31.15969798 -2.546875 31.0078125 C-5.13916852 30.86902982 -5.13916852 30.86902982 -8 32 C-11.7264284 32.12217798 -15.08601738 32.16617866 -18.75 31.5 C-21.92300067 31.01184605 -24.67521443 31.07121707 -27.875 31.1875 C-34.97463959 31.24035092 -39.21692209 29.43519317 -44.5 24.8125 C-46.6379002 20.80393712 -46.88561824 17.44376585 -46 13 C-43.1622646 8.21132151 -40.17271982 6.19003942 -35.046875 4.50390625 C-33 4 -33 4 -29.375 3.625 C-24.91851854 2.79972565 -23.35907702 0.98584624 -20 -2 C-13.65707842 -4.74859935 -5.88916756 -3.17309915 0 0 Z M-25 5 C-27.171875 5.52734375 -27.171875 5.52734375 -29.75 5.9375 C-35.31458332 6.96530183 -40.3133778 8.47072129 -44 13 C-44.62311223 16.04819764 -44.49967516 18.93532566 -44 22 C-41.58282439 25.49147588 -38.95806922 26.68246591 -35 28 C-32.45262556 28.29575213 -29.99143664 28.50832889 -27.4375 28.625 C-26.38828369 28.68083252 -26.38828369 28.68083252 -25.31787109 28.73779297 C-14.86685646 29.92612581 -14.86685646 29.92612581 -5 28 C-4.56717648 26.11135182 -4.56717648 26.11135182 -4.4375 23.875 C-4.36144531 23.06289063 -4.28539062 22.25078125 -4.20703125 21.4140625 C-4.13871094 20.61742188 -4.07039063 19.82078125 -4 19 C-3.359447 12.59447005 -3.359447 12.59447005 -1.375 9.3125 C0.18100587 7.14398194 0.18100587 7.14398194 0 4.875 C-1.45869376 2.1399492 -3.24908107 1.37545946 -6 0 C-8.94924807 -0.47082436 -8.94924807 -0.47082436 -12 -0.375 C-13.010625 -0.38273438 -14.02125 -0.39046875 -15.0625 -0.3984375 C-19.35468627 0.18374734 -21.97590859 1.97590859 -25 5 Z " fill="#AAA494" transform="translate(53,9)"/>
<path d="M0 0 C3.93774177 -0.36630156 5.56539771 -0.30233203 8.875 2 C9.926875 2.99 9.926875 2.99 11 4 C11.66 3.34 12.32 2.68 13 2 C15.66965874 5.31037683 16.21168302 7.56260884 15.8125 11.6875 C15.41522276 14.83923278 15.30675688 15.69324312 13 18 C13 17.34 13 16.68 13 16 C12.34 16 11.68 16 11 16 C10.67 16.99 10.34 17.98 10 19 C5.59043283 21.61818051 0.95393531 21.19427197 -4 21 C-3.34580901 15.93001981 -1.1453591 11.58009223 1 7 C0.34 7 -0.32 7 -1 7 C-0.67 4.69 -0.34 2.38 0 0 Z " fill="#0D3974" transform="translate(55,16)"/>
<path d="M0 0 C0 0.33 0 0.66 0 1 C-0.59167969 1.10957031 -1.18335938 1.21914062 -1.79296875 1.33203125 C-7.49813927 2.47678814 -11.78543255 3.78543255 -16 8 C-18.171875 8.52734375 -18.171875 8.52734375 -20.75 8.9375 C-25.92795077 9.88778865 -30.19814617 11.19814617 -34 15 C-34.35639561 17.10417968 -34.35639561 17.10417968 -34.3125 19.4375 C-34.32925781 20.21996094 -34.34601562 21.00242187 -34.36328125 21.80859375 C-33.91083804 24.53784794 -33.16879508 25.3274967 -31 27 C-25.32514206 29.54390184 -20.18465718 30.58482625 -14 31 C-14 31.33 -14 31.66 -14 32 C-28.97652661 32.59994988 -28.97652661 32.59994988 -35.375 26.875 C-37.65294115 22.84479642 -37.9016568 19.52424251 -37 15 C-34.1622646 10.21132151 -31.17271982 8.19003942 -26.046875 6.50390625 C-24 6 -24 6 -20.375 5.625 C-16.60984176 4.92774847 -15.51513296 3.64041331 -12.8203125 1.078125 C-9.01584946 -1.17516212 -4.26646053 -0.34162051 0 0 Z " fill="#9BA1AB" transform="translate(44,7)"/>
<path d="M0 0 C1.7015625 0.2784375 1.7015625 0.2784375 3.4375 0.5625 C4.613125 0.706875 5.78875 0.85125 7 1 C7.33 0.67 7.66 0.34 8 0 C10.33297433 -0.04092937 12.66705225 -0.04241723 15 0 C14.67 1.65 14.34 3.3 14 5 C13.34 4.34 12.68 3.68 12 3 C11.01 4.485 11.01 4.485 10 6 C7.6171875 6.29296875 7.6171875 6.29296875 4.875 6.1875 C3.96492188 6.16042969 3.05484375 6.13335938 2.1171875 6.10546875 C1.41851563 6.07066406 0.71984375 6.03585938 0 6 C0 4.02 0 2.04 0 0 Z " fill="#758AAF" transform="translate(17,22)"/>
<path d="M0 0 C7.92539531 -0.99363165 17.12857337 -0.37912599 25 1 C25.66 1.66 26.32 2.32 27 3 C22.4553483 4.5148839 17.91986425 4.34906623 13.25 3.5 C8.18471066 2.72072472 3.1149009 2.92551115 -2 3 C-1.34 2.01 -0.68 1.02 0 0 Z " fill="#89909F" transform="translate(21,37)"/>
<path d="M0 0 C0.66 0 1.32 0 2 0 C1.96519531 0.75925781 1.93039062 1.51851562 1.89453125 2.30078125 C1.86746094 3.29464844 1.84039062 4.28851563 1.8125 5.3125 C1.77769531 6.29863281 1.74289062 7.28476562 1.70703125 8.30078125 C1.7716457 10.99526515 1.7716457 10.99526515 3.28515625 12.75390625 C8.82199474 16.77725814 15.36865172 17.55484005 22 18 C22 18.33 22 18.66 22 19 C7.02347339 19.59994988 7.02347339 19.59994988 0.625 13.875 C-1.60767228 9.92488751 -1.53317364 6.44894072 -1 2 C-0.67 1.34 -0.34 0.68 0 0 Z " fill="#A9B0BC" transform="translate(8,20)"/>
<path d="M0 0 C6.18943397 -0.33157682 10.33966222 0.41809154 16 3 C16.33 3.66 16.66 4.32 17 5 C16.05125 4.855625 15.1025 4.71125 14.125 4.5625 C9.43259653 3.88802722 4.71865588 3.44623104 0 3 C0 2.01 0 1.02 0 0 Z " fill="#6F7887" transform="translate(37,6)"/>
<path d="M0 0 C1.79408332 0.6180287 3.58520478 1.24466081 5.375 1.875 C6.87160156 2.39707031 6.87160156 2.39707031 8.3984375 2.9296875 C11 4 11 4 13 6 C12.625 8.125 12.625 8.125 12 10 C11.278125 9.360625 10.55625 8.72125 9.8125 8.0625 C7.20777412 5.82502961 7.20777412 5.82502961 4.3125 5.5625 C3.1678125 5.2840625 3.1678125 5.2840625 2 5 C0.85546875 2.46484375 0.85546875 2.46484375 0 0 Z " fill="#737C8A" transform="translate(54,11)"/>
<path d="M0 0 C0.66 0 1.32 0 2 0 C1.63225772 2.46542713 1.40922938 3.66935082 -0.56640625 5.265625 C-5.66300899 7.77901813 -9.32471509 8.40537749 -15 8 C-15 7.67 -15 7.34 -15 7 C-12.69 7 -10.38 7 -8 7 C-8 6.34 -8 5.68 -8 5 C-6.865625 4.54625 -5.73125 4.0925 -4.5625 3.625 C-0.95278308 2.42904194 -0.95278308 2.42904194 0 0 Z " fill="#798089" transform="translate(66,32)"/>
<path d="M0 0 C0.66 0 1.32 0 2 0 C2 0.99 2 1.98 2 3 C4.31 3 6.62 3 9 3 C9 3.66 9 4.32 9 5 C5.04 5 1.08 5 -3 5 C-3 4.34 -3 3.68 -3 3 C-2.34 3 -1.68 3 -1 3 C-0.67 2.01 -0.34 1.02 0 0 Z " fill="#A5B0BF" transform="translate(49,34)"/>
<path d="M0 0 C0.33 0 0.66 0 1 0 C1 1.65 1 3.3 1 5 C1.66 5 2.32 5 3 5 C2.6875 7.375 2.6875 7.375 2 10 C1.01 10.66 0.02 11.32 -1 12 C-2.42857143 3.42857143 -2.42857143 3.42857143 0 0 Z " fill="#F1BA49" transform="translate(52,19)"/>
<path d="M0 0 C1.50433594 0.01353516 1.50433594 0.01353516 3.0390625 0.02734375 C3.80992188 0.03894531 4.58078125 0.05054688 5.375 0.0625 C5.375 0.3925 5.375 0.7225 5.375 1.0625 C4.78332031 1.17207031 4.19164062 1.28164062 3.58203125 1.39453125 C-1.10152529 2.33429871 -4.57296756 3.44059665 -8.625 6.0625 C-9.615 6.0625 -10.605 6.0625 -11.625 6.0625 C-7.74019499 1.01225348 -6.34759713 -0.07380927 0 0 Z " fill="#A9AFB9" transform="translate(38.625,6.9375)"/>
<path d="M0 0 C1.875 0.25 1.875 0.25 4 1 C5.25 3.0625 5.25 3.0625 6 5 C5 6 5 6 2.4375 6.0625 C1.2309375 6.0315625 1.2309375 6.0315625 0 6 C0 4.02 0 2.04 0 0 Z " fill="#697FA8" transform="translate(17,22)"/>
<path d="M0 0 C-0.33 1.98 -0.66 3.96 -1 6 C-2.65 5.67 -4.3 5.34 -6 5 C-5.67 4.01 -5.34 3.02 -5 2 C-5.66 2 -6.32 2 -7 2 C-7.33 2.99 -7.66 3.98 -8 5 C-8 3.68 -8 2.36 -8 1 C-5.10765685 0.17361624 -3.11257569 0 0 0 Z " fill="#7286AD" transform="translate(45,22)"/>
<path d="M0 0 C0.99 0.33 1.98 0.66 3 1 C3 2.98 3 4.96 3 7 C2.34 7 1.68 7 1 7 C0.67 7.66 0.34 8.32 0 9 C0 6.03 0 3.06 0 0 Z " fill="#989EA5" transform="translate(68,22)"/>
<path d="M0 0 C3 1 3 1 4 3 C6.52733235 3.65555119 6.52733235 3.65555119 9 4 C8.38125 4.268125 7.7625 4.53625 7.125 4.8125 C4.7004767 5.95556848 4.7004767 5.95556848 3 9 C2.01 6.03 1.02 3.06 0 0 Z " fill="#BBC2CE" transform="translate(51,10)"/>
<path d="M0 0 C0.99 0 1.98 0 3 0 C3 1.98 3 3.96 3 6 C2.01 6 1.02 6 0 6 C0 4.02 0 2.04 0 0 Z " fill="#7E91B4" transform="translate(33,22)"/>
</svg>
